# xmcd CD database file
#
# Track frame offsets:
#	150
#	11705
#	24983
#	42608
#	62258
#	76715
#	92168
#	107301
#	123429
#	136554
#	169312
#	186937
#	203362
#	220615
#	240340
#
# Disc length: 3538 seconds
#
# Revision: 2
# Processed by: cddbd v1.5.2PL0 Copyright (c) Steve Scherf et al.
# Submitted via: CDex 1.51
#
DISCID=af0dd00f
DTITLE=Various Artist - SF-153**
DYEAR=1900
DGENRE=Blues
TTITLE0=Elvis Presley - His Latest Flame (Maria's The Name)
TTITLE1=Ricky Nelson - Sweeter Than You
TTITLE2=Carpenters The - Rainy Days And Mondays
TTITLE3=Saw Doctors - N 17
TTITLE4=Jackson 5 The - ABC
TTITLE5=Garth Brooks - The Dance
TTITLE6=Marlene Dietrich - Falling In Love Again
TTITLE7=Olivia Newton John - Banks Of The Ohio
TTITLE8=Elvis Presley - D'ya Ever (Have One Of Those Days)
TTITLE9=Billy Joel - Scenes From An Italian Restaurant
TTITLE10=Perry Como - For The Good Times
TTITLE11=Joan Baez - The Night They Drove Old Dixie Down
TTITLE12=George Harrison - Got My Mind Set On You
TTITLE13=Elvis Presley - Old Shep
TTITLE14=Tom Jones and The Cardigans - Burning Down The House
EXTD=
EXTT0=
EXTT1=
EXTT2=
EXTT3=
EXTT4=
EXTT5=
EXTT6=
EXTT7=
EXTT8=
EXTT9=
EXTT10=
EXTT11=
EXTT12=
EXTT13=
EXTT14=
PLAYORDER=
